<svg clip-rule="evenodd" fill-rule="evenodd" stroke-linejoin="round" stroke-miterlimit="2" viewBox="0 0 48 48" xmlns="http://www.w3.org/2000/svg">
 <linearGradient id="a" x2="1" gradientTransform="matrix(-3.7e-7 -28 28 -3.7e-7 24 38)" gradientUnits="userSpaceOnUse">
  <stop stop-color="#da3f6c" offset="0"/>
  <stop stop-color="#bf5297" offset="1"/>
 </linearGradient>
 <path transform="matrix(1.1382 0 0 1.1382 -3.3168 -3.3168)" d="m44 24c0-11.038-8.962-20-20-20s-20 8.962-20 20 8.962 20 20 20 20-8.962 20-20z" fill="#e4e4e4"/>
 <path transform="matrix(1.1382 0 0 1.1382 -3.3168 -3.3168)" d="m42 24c0-9.934-8.066-18-18-18s-18 8.066-18 18 8.066 18 18 18 18-8.066 18-18z" fill="#4f4f4f"/>
 <circle cx="24" cy="24" r="18.2112" fill-opacity=".63" stroke-width="1.1382"/>
 <circle transform="matrix(1.1382 0 0 1.1382 -3.3168 -3.3168)" cx="24" cy="24" r="14" fill="url(#a)"/>
 <path transform="matrix(1.1382 0 0 1.1382 -3.3168 -3.3168)" d="m24 15c-4.937 0-9 4.063-9 9s4.063 9 9 9 9-4.063 9-9-4.063-9-9-9zm0 3c3.292 0 6 2.708 6 6s-2.708 6-6 6-6-2.708-6-6 2.708-6 6-6z" fill="#4a1dba" fill-rule="nonzero"/>
 <g fill="#fff" stroke-width="1.1382">
  <circle cx="18.309" cy="18.309" r="4.5528"/>
  <circle cx="30.8292" cy="30.8292" r="3.4146"/>
  <circle cx="26.275262" cy="26.275262" r="2.2752618"/>
 </g>
</svg>
