<svg clip-rule="evenodd" fill-rule="evenodd" stroke-linejoin="round" stroke-miterlimit="2" viewBox="0 0 16 16" xmlns="http://www.w3.org/2000/svg">
 <g fill="#dfdfdf">
  <path transform="translate(1 .992556)" d="m5 8.72v.95c2.1 1.09 4 0 4 0v-.95s-2.06 1.05-4 0z"/>
  <ellipse cx="8" cy="7.992556" rx="2" ry="1"/>
  <path transform="translate(1 .992556)" d="m5 10.72v.95c2.1 1.09 4 0 4 0v-.95s-2.06 1.05-4 0z"/>
  <path transform="matrix(.546153 0 0 .546153 -3.37527 -.713871)" d="m12.962 1.955c-0.831 0-1.628 0.33-2.216 0.918s-0.918 1.385-0.918 2.216v21.732c0 1.731 1.403 3.134 3.134 3.134h15.732c1.731 0 3.134-1.403 3.134-3.134v-17.379l-6.329-7.487zm-1.134 2h12.836v6.032l5.164 0.052v17.916h-18z" fill-rule="nonzero"/>
 </g>
</svg>
