<svg clip-rule="evenodd" fill-rule="evenodd" stroke-linejoin="round" stroke-miterlimit="2" viewBox="0 0 16 16" xmlns="http://www.w3.org/2000/svg">
 <g fill="#dfdfdf">
  <path d="m4.5 8c-.28 0-.5.22-.5.5v4c0 .28.22.5.5.5h7c.28 0 .5-.22.5-.5v-4c0-.28-.22-.5-.5-.5zm1 1c.28 0 .5.22.5.5s-.22.5-.5.5-.5-.22-.5-.5.22-.5.5-.5zm2 0h3c.28 0 .5.22.5.5s-.22.5-.5.5h-3c-.28 0-.5-.22-.5-.5s.22-.5.5-.5zm-2 2c.28 0 .5.22.5.5s-.22.5-.5.5-.5-.22-.5-.5.22-.5.5-.5zm2 0h3c.28 0 .5.22.5.5s-.22.5-.5.5h-3c-.28 0-.5-.22-.5-.5s.22-.5.5-.5z"/>
  <path transform="matrix(.546153 0 0 .546153 -3.37527 -.713871)" d="m12.962 1.955c-0.831 0-1.628 0.33-2.216 0.918s-0.918 1.385-0.918 2.216v21.732c0 1.731 1.403 3.134 3.134 3.134h15.732c1.731 0 3.134-1.403 3.134-3.134v-17.379l-6.329-7.487zm-1.134 2h12.836v6.032l5.164 0.052v17.916h-18z" fill-rule="nonzero"/>
 </g>
</svg>
